<svg xmlns="http://www.w3.org/2000/svg" xmlns:xlink="http://www.w3.org/1999/xlink" version="1.1" id="Layer_1" x="0px" y="0px" width="100px" height="100px" viewBox="5.0 -10.0 100.0 135.0" enable-background="new 0 0 100 100" xml:space="preserve">
<path d="M50,5C25.187,5,5,25.187,5,50c0,24.813,20.187,45,45,45c24.813,0,45-20.188,45-45C95,25.187,74.813,5,50,5z M50,89.204  c-21.617,0-39.204-17.587-39.204-39.204S28.383,10.796,50,10.796S89.204,28.383,89.204,50S71.617,89.204,50,89.204z"/>
<path d="M68.501,58.759H31.499c-1.519,0-2.751,1.269-2.751,2.832c0,0.038,0.009,0.073,0.011,0.109h-0.011  c0.006,0.043,0.017,0.083,0.023,0.126c0.016,0.199,0.052,0.395,0.107,0.58C30.607,72.521,39.392,80.229,50,80.229  c10.607,0,19.395-7.707,21.123-17.821c0.055-0.187,0.089-0.38,0.105-0.58c0.006-0.043,0.018-0.083,0.022-0.126H71.24  c0.001-0.036,0.011-0.071,0.011-0.109C71.252,60.027,70.021,58.759,68.501,58.759z"/>
<polygon points="30.689,45.988 36.967,42.688 43.244,45.988 42.044,38.998 47.125,34.048 40.106,33.028 36.967,26.668   33.827,33.028 26.809,34.048 31.889,38.998 "/>
<polygon points="63.221,26.668 60.081,33.028 53.063,34.048 58.143,38.998 56.941,45.988 63.221,42.688 69.496,45.988   68.297,38.998 73.376,34.048 66.357,33.028 "/>
</svg>