<svg xmlns="http://www.w3.org/2000/svg" xmlns:xlink="http://www.w3.org/1999/xlink" version="1.1" id="Layer_1" x="0px" y="0px" width="100px" height="100px" viewBox="5.0 -10.0 100.0 135.0" enable-background="new 0 0 100 100" xml:space="preserve">
<g>
	<path fill="none" d="M50,10.796c-21.617,0-39.204,17.587-39.204,39.204S28.382,89.204,50,89.204   c21.618,0,39.205-17.587,39.205-39.204S71.617,10.796,50,10.796z M29.504,36.328c0-6.403,3.341-11.592,7.463-11.592   c4.122,0,7.463,5.189,7.463,11.592c0,6.401-3.341,11.592-7.463,11.592C32.846,47.92,29.504,42.729,29.504,36.328z M64.729,65.418   L36.87,73.404c-0.266,0.077-0.536,0.113-0.8,0.113c-1.26,0-2.419-0.828-2.784-2.1c-0.441-1.539,0.449-3.144,1.987-3.585   l27.857-7.986c1.541-0.442,3.144,0.449,3.584,1.986C67.157,63.372,66.268,64.977,64.729,65.418z M63.033,47.92   c-4.122,0-7.464-5.19-7.464-11.592c0-6.403,3.342-11.592,7.464-11.592c4.123,0,7.462,5.189,7.462,11.592   C70.495,42.729,67.156,47.92,63.033,47.92z"/>
	<path d="M50,5C25.187,5,5,25.187,5,50c0,24.813,20.187,45,45,45c24.814,0,45-20.187,45-45C95,25.187,74.813,5,50,5z M50,89.204   c-21.617,0-39.204-17.587-39.204-39.204S28.382,10.796,50,10.796c21.618,0,39.205,17.587,39.205,39.204S71.617,89.204,50,89.204z"/>
	<ellipse cx="36.967" cy="36.328" rx="7.463" ry="11.592"/>
	<ellipse cx="63.033" cy="36.328" rx="7.464" ry="11.592"/>
	<path d="M63.131,59.847l-27.857,7.986c-1.539,0.441-2.428,2.046-1.987,3.585c0.365,1.271,1.524,2.1,2.784,2.1   c0.264,0,0.534-0.036,0.8-0.113l27.858-7.986c1.539-0.441,2.429-2.046,1.986-3.585C66.274,60.296,64.672,59.404,63.131,59.847z"/>
</g>
</svg>